<?xml version="1.0" standalone="no"?>
<!DOCTYPE svg PUBLIC "-//W3C//DTD SVG 20010904//EN"
 "http://www.w3.org/TR/2001/REC-SVG-20010904/DTD/svg10.dtd">
<svg version="1.0" xmlns="http://www.w3.org/2000/svg"
 width="260.000000pt" height="260.000000pt" viewBox="0 0 260.000000 260.000000"
 preserveAspectRatio="xMidYMid meet">
<metadata>
Created by potrace 1.11, written by Peter Selinger 2001-2013
</metadata>
<g transform="translate(0.000000,260.000000) scale(0.100000,-0.100000)"
fill="#000000" stroke="none">
<path d="M625 2280 c-89 -44 -173 -113 -191 -157 -11 -25 -14 -119 -14 -435 0
-275 -5 -446 -15 -538 -7 -74 -21 -205 -30 -290 -8 -85 -20 -177 -25 -203 -21
-104 -10 -153 54 -229 17 -21 44 -53 59 -72 16 -19 44 -41 63 -48 19 -6 34
-16 34 -20 0 -10 67 -11 72 0 2 4 41 27 88 51 47 24 179 95 295 156 246 132
367 196 487 258 109 57 283 128 651 269 39 15 74 64 88 123 6 28 15 58 20 67
12 23 12 88 0 88 -5 0 -11 10 -15 23 -11 43 -52 77 -171 140 -562 300 -435
223 -965 588 -350 242 -363 249 -417 249 -15 0 -46 -9 -68 -20z"/>
</g>
</svg>
